<?xml version="1.0" standalone="no"?>
<!DOCTYPE svg PUBLIC "-//W3C//DTD SVG 20010904//EN"
 "http://www.w3.org/TR/2001/REC-SVG-20010904/DTD/svg10.dtd">
<svg version="1.0" xmlns="http://www.w3.org/2000/svg"
 width="200.000000pt" height="200.000000pt" viewBox="0 0 200.000000 200.000000"
 preserveAspectRatio="xMidYMid meet">
<metadata>
Created by potrace 1.11, written by Peter Selinger 2001-2013
</metadata>
<g transform="translate(0.000000,200.000000) scale(0.100000,-0.100000)"
fill="#000000" stroke="none">
<path d="M695 1644 c-93 -23 -276 -68 -405 -99 -257 -63 -277 -70 -285 -95 -8
-24 -3 -45 65 -324 32 -133 61 -253 64 -267 2 -13 26 -109 51 -214 57 -229 50
-202 60 -250 8 -44 40 -85 64 -85 9 0 73 14 141 31 69 17 132 32 140 34 8 2
103 25 210 51 l195 47 75 -17 c41 -9 86 -19 100 -22 13 -3 132 -32 264 -65
147 -36 251 -57 267 -54 14 3 31 16 37 28 8 16 73 279 98 392 1 6 16 66 32
135 42 170 83 341 87 364 3 10 14 57 26 103 24 97 20 126 -18 141 -22 9 -223
62 -293 77 -23 5 -300 73 -434 106 -134 33 -144 34 -168 15 -16 -12 -40 -84
-54 -161 -3 -16 -7 -31 -9 -34 -6 -5 -22 39 -28 77 -8 52 -29 106 -46 119 -22
17 -43 14 -236 -33z"/>
</g>
</svg>
